<?xml version="1.0" standalone="no"?>
<!DOCTYPE svg PUBLIC "-//W3C//DTD SVG 20010904//EN"
 "http://www.w3.org/TR/2001/REC-SVG-20010904/DTD/svg10.dtd">
<svg version="1.0" xmlns="http://www.w3.org/2000/svg"
 width="700.000000pt" height="700.000000pt" viewBox="0 0 700.000000 700.000000"
 preserveAspectRatio="xMidYMid meet">
<metadata>
Created by potrace 1.11, written by Peter Selinger 2001-2013
</metadata>
<g transform="translate(0.000000,700.000000) scale(0.100000,-0.100000)"
fill="#000000" stroke="none">
<path d="M3269 6886 c-2 -2 -42 -7 -89 -11 -47 -4 -94 -9 -105 -11 -11 -2 -42
-6 -70 -9 -121 -14 -374 -73 -545 -127 -237 -75 -515 -203 -735 -338 -60 -37
-208 -137 -240 -162 -5 -4 -57 -45 -115 -90 -166 -131 -420 -389 -547 -558
-98 -129 -143 -190 -143 -194 0 -3 -17 -31 -39 -63 -132 -200 -270 -489 -356
-746 -38 -114 -96 -328 -110 -407 -10 -57 -15 -86 -19 -106 -2 -12 -8 -45 -11
-75 -4 -30 -9 -65 -11 -79 -26 -170 -25 -686 1 -829 1 -9 5 -38 9 -66 24 -178
78 -404 146 -606 130 -393 370 -811 646 -1129 51 -58 261 -270 329 -331 156
-140 448 -340 655 -448 198 -103 478 -218 610 -251 19 -4 78 -20 130 -34 96
-25 265 -59 353 -71 27 -4 57 -8 66 -10 140 -27 648 -27 836 0 442 63 737 153
1107 337 390 195 760 482 1039 808 35 41 66 77 69 80 21 20 124 160 189 257
115 172 230 383 295 543 15 36 33 79 41 95 7 17 34 91 59 165 63 189 112 393
141 595 4 22 8 50 10 62 13 80 20 229 20 428 0 270 -8 370 -50 610 -3 17 -12
62 -21 100 -9 39 -18 80 -20 92 -9 45 -75 263 -104 344 -108 295 -260 585
-434 824 -176 244 -412 491 -642 676 -101 81 -255 189 -364 254 -85 52 -381
205 -395 205 -3 0 -24 9 -48 19 -129 59 -435 155 -592 187 -44 9 -142 26 -170
31 -16 2 -41 6 -55 9 -14 2 -52 6 -85 10 -33 3 -71 8 -85 11 -28 6 -546 14
-551 9z m521 -1660 c618 -112 1109 -512 1340 -1091 48 -119 84 -260 106 -415
11 -69 11 -367 1 -440 -37 -264 -117 -483 -272 -738 -41 -68 -144 -193 -229
-277 -281 -279 -594 -434 -1012 -502 -27 -4 -134 -7 -239 -7 -182 1 -241 8
-416 48 -38 9 -135 41 -209 69 -402 153 -746 473 -935 870 -127 265 -176 496
-170 792 2 94 6 181 8 195 3 14 11 54 17 90 41 244 181 558 329 743 194 242
426 425 671 531 36 15 79 34 95 41 79 35 246 76 415 103 92 14 394 7 500 -12z"/>
<path d="M3508 4926 c-1 -2 -50 -6 -108 -10 -496 -32 -939 -326 -1166 -773
-54 -105 -107 -252 -125 -348 -21 -105 -24 -144 -24 -295 0 -142 4 -200 20
-270 3 -14 8 -38 10 -53 3 -16 21 -76 41 -134 118 -354 369 -641 712 -816 75
-39 250 -102 312 -112 19 -3 42 -8 50 -10 50 -14 92 -18 245 -20 170 -3 274 8
406 46 24 7 49 13 54 15 45 10 188 74 261 116 147 84 314 223 394 327 14 18
30 38 37 45 46 51 145 224 197 346 18 44 63 195 70 241 3 19 9 48 12 64 4 17
8 107 9 200 3 140 0 188 -17 265 -10 52 -21 105 -24 117 -10 51 -69 203 -105
274 -233 449 -660 735 -1159 775 -41 3 -80 7 -87 9 -6 2 -13 2 -15 1z m128
-1130 c118 -54 188 -164 188 -296 0 -154 -96 -278 -244 -316 -258 -66 -480
189 -383 438 66 171 270 251 439 174z"/>
</g>
</svg>
